<svg xmlns="http://www.w3.org/2000/svg" xmlns:xlink="http://www.w3.org/1999/xlink" width="500" zoomAndPan="magnify" viewBox="0 0 375 374.999991" height="500" preserveAspectRatio="xMidYMid meet" version="1.0"><defs><g/><clipPath id="ddb5a64691"><path d="M 62 167 L 317 167 L 317 246 L 62 246 Z M 62 167 " clip-rule="nonzero"/></clipPath><clipPath id="4355ed4121"><path d="M 60.425781 173.6875 L 316.046875 165.511719 L 318.394531 238.976562 L 62.773438 247.148438 Z M 60.425781 173.6875 " clip-rule="nonzero"/></clipPath><clipPath id="802d99b1fc"><path d="M 60.425781 173.6875 L 316.046875 165.511719 L 318.394531 238.976562 L 62.773438 247.148438 Z M 60.425781 173.6875 " clip-rule="nonzero"/></clipPath><clipPath id="6050fa2348"><path d="M 60.425781 173.6875 L 316.046875 165.511719 L 318.394531 238.976562 L 62.773438 247.148438 Z M 60.425781 173.6875 " clip-rule="nonzero"/></clipPath></defs><g clip-path="url(#ddb5a64691)"><g clip-path="url(#4355ed4121)"><g clip-path="url(#802d99b1fc)"><g clip-path="url(#6050fa2348)"><path fill="#bae1d8" d="M 306.476562 168.28125 C 315.171875 177.808594 316.378906 184.191406 311.5 194.367188 C 312.207031 197.023438 312.816406 199.820312 313.679688 202.546875 C 314.542969 205.273438 315.640625 207.957031 316.796875 211.089844 C 312.574219 214.03125 311.253906 218.847656 309.019531 223.507812 C 306.816406 223.765625 304.570312 224.128906 302.316406 224.289062 C 277.652344 225.988281 252.90625 227.386719 228.332031 229.449219 C 210.046875 230.949219 191.910156 233.488281 173.914062 237.0625 C 167.609375 238.324219 161.261719 238.339844 154.828125 238.445312 C 137.90625 238.675781 121.167969 240.554688 104.613281 244.082031 C 95.234375 246.113281 86.160156 245.390625 77.023438 243.15625 C 65.832031 240.457031 65.832031 240.480469 63.039062 230.097656 C 62.402344 227.726562 62.347656 225.226562 64.097656 223.554688 C 67.792969 220.074219 67.65625 215.722656 67.351562 211.433594 C 66.972656 205.496094 68.738281 200.019531 70.367188 194.496094 C 70.542969 193.789062 70.828125 193.128906 71.226562 192.511719 C 71.621094 191.898438 72.105469 191.367188 72.679688 190.910156 C 73.25 190.457031 73.882812 190.105469 74.570312 189.859375 C 75.261719 189.609375 75.972656 189.480469 76.703125 189.464844 C 81.625 188.96875 86.515625 188.179688 91.40625 187.515625 C 92.859375 187.40625 94.296875 187.175781 95.710938 186.824219 C 112.175781 181.609375 129.425781 181.234375 146.332031 178.722656 C 156.4375 177.226562 166.554688 176.042969 176.6875 175.226562 C 185.898438 174.542969 195.128906 174.058594 204.375 173.773438 C 220.050781 173.269531 235.675781 171.230469 251.316406 169.742188 C 253.042969 169.507812 254.722656 169.085938 256.355469 168.484375 C 257.859375 167.902344 259.417969 167.65625 261.03125 167.75 C 262.644531 167.84375 264.160156 168.269531 265.589844 169.023438 C 267.753906 169.875 270 170.226562 272.324219 170.070312 C 275.820312 170.035156 279.304688 169.808594 282.773438 169.382812 C 286.808594 168.910156 290.800781 167.863281 294.859375 167.730469 C 298.742188 167.707031 302.613281 167.890625 306.476562 168.28125 Z M 306.476562 168.28125 " fill-opacity="1" fill-rule="nonzero"/></g></g></g></g><g fill="#000000" fill-opacity="1"><g transform="translate(94.408674, 241.134133)"><g><path d="M 52.75 -40.933594 C 49.359375 -41.480469 45.171875 -41.382812 40.183594 -40.632812 C 44.621094 -43.375 47.8125 -46.367188 49.660156 -49.507812 C 51.503906 -52.648438 51.601562 -55.144531 50.058594 -56.988281 C 48.460938 -58.832031 44.773438 -59.179688 38.9375 -58.132812 C 32.507812 -56.636719 26.375 -54.09375 20.640625 -50.507812 C 14.90625 -46.867188 11.667969 -43.824219 10.917969 -41.28125 C 10.867188 -41.082031 10.867188 -40.832031 10.96875 -40.484375 C 11.019531 -40.136719 11.269531 -39.835938 11.617188 -39.585938 C 11.964844 -39.335938 12.5625 -39.1875 13.410156 -39.1875 C 13.859375 -39.1875 14.210938 -39.335938 14.457031 -39.6875 C 14.707031 -40.035156 14.757812 -40.335938 14.707031 -40.683594 C 14.65625 -41.03125 14.410156 -41.183594 13.960938 -41.183594 C 13.910156 -41.183594 13.761719 -41.183594 13.609375 -41.230469 C 13.460938 -41.230469 13.3125 -41.28125 13.164062 -41.332031 C 13.011719 -41.382812 12.964844 -41.433594 12.964844 -41.53125 C 13.210938 -42.480469 14.558594 -43.972656 17.101562 -45.917969 C 19.644531 -47.863281 22.835938 -49.859375 26.675781 -51.800781 C 30.511719 -53.746094 34.601562 -55.242188 38.839844 -56.191406 C 43.476562 -57.039062 46.515625 -56.886719 47.914062 -55.691406 C 49.308594 -54.496094 49.410156 -52.800781 48.210938 -50.554688 C 47.015625 -48.3125 44.820312 -46.070312 41.632812 -43.824219 C 38.441406 -41.582031 34.601562 -39.835938 30.113281 -38.640625 C 30.910156 -41.480469 31.757812 -44.621094 32.707031 -48.0625 C 32.757812 -48.511719 32.65625 -48.8125 32.40625 -48.960938 C 32.109375 -49.109375 31.808594 -49.109375 31.460938 -48.960938 C 31.109375 -48.8125 30.8125 -48.511719 30.664062 -48.0625 C 28.769531 -41.03125 27.121094 -35.101562 25.777344 -30.363281 C 25.476562 -29.214844 25.179688 -28.167969 24.878906 -27.121094 C 23.832031 -23.433594 22.984375 -20.34375 22.386719 -17.800781 C 21.738281 -15.257812 21.488281 -13.363281 21.589844 -12.117188 C 21.6875 -10.820312 22.285156 -10.171875 23.382812 -10.171875 C 23.832031 -10.171875 24.132812 -10.320312 24.378906 -10.667969 C 24.628906 -11.019531 24.730469 -11.316406 24.679688 -11.667969 C 24.628906 -12.015625 24.332031 -12.164062 23.882812 -12.164062 C 23.433594 -12.164062 23.433594 -13.210938 23.882812 -15.355469 C 24.332031 -17.5 24.878906 -19.84375 25.578125 -22.4375 C 26.273438 -25.027344 26.875 -27.171875 27.421875 -28.917969 C 27.570312 -29.515625 27.722656 -30.015625 27.820312 -30.363281 C 28.367188 -32.207031 28.917969 -34.300781 29.566406 -36.546875 L 29.617188 -36.546875 C 29.964844 -36.59375 30.511719 -36.746094 31.160156 -36.894531 C 33.355469 -37.492188 36.394531 -38.089844 40.335938 -38.738281 C 44.222656 -39.335938 48.113281 -39.386719 51.953125 -38.9375 C 56.238281 -38.140625 58.882812 -36.347656 59.929688 -33.503906 C 60.925781 -30.664062 59.929688 -27.371094 56.988281 -23.632812 C 54.046875 -19.894531 48.710938 -16.253906 41.082031 -12.761719 C 32.257812 -9.074219 23.980469 -6.480469 16.152344 -4.9375 C 8.328125 -3.390625 3.640625 -2.992188 2.144531 -3.839844 C 2.195312 -4.238281 2.042969 -4.488281 1.746094 -4.636719 C 1.445312 -4.738281 1.148438 -4.6875 0.796875 -4.535156 C 0.449219 -4.386719 0.25 -4.089844 0.101562 -3.640625 C 0.0507812 -3.488281 0.0507812 -3.242188 0.101562 -2.941406 C 0.148438 -2.640625 0.300781 -2.394531 0.597656 -2.144531 C 2.742188 -0.996094 7.925781 -1.246094 16.203125 -2.941406 C 24.429688 -4.636719 32.90625 -7.328125 41.53125 -10.96875 C 49.90625 -14.808594 55.691406 -18.847656 58.933594 -23.183594 C 62.121094 -27.472656 63.121094 -31.261719 61.921875 -34.601562 C 60.675781 -37.941406 57.636719 -40.035156 52.75 -40.933594 Z M 52.75 -40.933594 "/></g></g></g><g fill="#000000" fill-opacity="1"><g transform="translate(158.12522, 241.134133)"><g><path d="M 4.636719 -24.53125 C 4.1875 -24.28125 3.441406 -24.132812 2.394531 -24.082031 C 3.140625 -24.53125 3.890625 -24.679688 4.636719 -24.53125 Z M 14.65625 -24.777344 C 10.121094 -21.4375 6.230469 -19.894531 2.992188 -20.140625 C 2.242188 -20.191406 1.746094 -20.34375 1.394531 -20.589844 C 1.046875 -20.839844 0.847656 -21.089844 0.796875 -21.390625 C 0.699219 -21.636719 0.699219 -21.9375 0.746094 -22.1875 C 2.691406 -21.9375 4.238281 -22.1875 5.433594 -22.882812 C 6.582031 -23.582031 7.078125 -24.378906 6.929688 -25.328125 C 6.679688 -26.175781 5.984375 -26.625 4.835938 -26.625 C 3.691406 -26.574219 2.492188 -26.226562 1.296875 -25.476562 C 0.0507812 -24.730469 -0.746094 -23.632812 -1.195312 -22.285156 C -1.546875 -21.039062 -1.445312 -20.042969 -0.796875 -19.296875 C -0.148438 -18.546875 1.046875 -18.148438 2.792969 -18.148438 C 6.730469 -18.148438 10.96875 -19.84375 15.554688 -23.285156 C 15.953125 -23.582031 16.152344 -23.933594 16.152344 -24.28125 C 16.105469 -24.628906 15.953125 -24.878906 15.707031 -25.027344 C 15.40625 -25.179688 15.058594 -25.078125 14.65625 -24.777344 Z M 14.65625 -24.777344 "/></g></g></g><g fill="#000000" fill-opacity="1"><g transform="translate(172.73316, 241.134133)"><g><path d="M 35.398438 -42.976562 L 7.128906 -42.976562 C 7.976562 -46.21875 8.925781 -49.707031 9.921875 -53.496094 C 10.019531 -53.945312 9.921875 -54.246094 9.671875 -54.394531 C 9.375 -54.542969 9.023438 -54.542969 8.675781 -54.394531 C 8.328125 -54.246094 8.078125 -53.945312 7.925781 -53.496094 C 6.878906 -49.707031 5.933594 -46.21875 5.085938 -42.976562 L -8.226562 -42.976562 C -8.675781 -42.976562 -8.972656 -42.828125 -9.171875 -42.480469 C -9.421875 -42.128906 -9.523438 -41.832031 -9.472656 -41.480469 C -9.421875 -41.132812 -9.222656 -40.984375 -8.875 -40.984375 L 4.535156 -40.984375 C 3.589844 -37.34375 2.691406 -34.054688 1.894531 -31.109375 C -1.347656 -19.445312 -3.242188 -12.117188 -3.789062 -9.171875 C -4.039062 -7.828125 -4.089844 -6.730469 -3.9375 -5.882812 C -3.789062 -4.984375 -3.140625 -4.535156 -1.996094 -4.535156 C -1.546875 -4.535156 -1.195312 -4.6875 -0.949219 -5.035156 C -0.699219 -5.382812 -0.648438 -5.734375 -0.699219 -6.082031 C -0.746094 -6.433594 -0.996094 -6.582031 -1.445312 -6.582031 C -1.59375 -6.582031 -1.746094 -6.632812 -1.84375 -6.78125 C -1.945312 -6.929688 -1.996094 -7.179688 -1.996094 -7.578125 C -1.996094 -7.976562 -1.894531 -8.574219 -1.746094 -9.375 C -1.046875 -12.613281 0.847656 -19.894531 3.890625 -31.109375 L 6.582031 -40.984375 L 34.902344 -40.984375 C 35.347656 -40.984375 35.699219 -41.132812 35.949219 -41.480469 C 36.195312 -41.832031 36.246094 -42.128906 36.195312 -42.480469 C 36.148438 -42.828125 35.847656 -42.976562 35.398438 -42.976562 Z M 35.398438 -42.976562 "/></g></g></g><g fill="#000000" fill-opacity="1"><g transform="translate(179.713063, 241.134133)"><g><path d="M 22.933594 -24.828125 L 22.785156 -24.730469 C 21.191406 -23.53125 19.59375 -22.484375 18.046875 -21.539062 C 16.453125 -20.589844 14.90625 -20.140625 13.460938 -20.140625 C 12.8125 -20.140625 12.363281 -20.34375 12.214844 -20.691406 C 12.015625 -21.039062 11.914062 -21.738281 11.914062 -22.683594 C 11.964844 -23.234375 11.914062 -23.78125 11.867188 -24.378906 C 11.765625 -24.929688 11.515625 -25.425781 11.167969 -25.828125 C 10.820312 -26.226562 10.171875 -26.425781 9.324219 -26.425781 C 8.078125 -26.425781 6.730469 -25.925781 5.285156 -24.980469 C 3.839844 -23.980469 2.394531 -22.785156 0.949219 -21.390625 C 1.394531 -23.234375 2.042969 -25.828125 2.890625 -29.066406 C 3.738281 -32.308594 4.636719 -35.597656 5.535156 -38.890625 C 6.28125 -41.632812 6.980469 -44.375 7.726562 -47.015625 C 7.828125 -47.464844 7.726562 -47.765625 7.480469 -47.914062 C 7.179688 -48.0625 6.832031 -48.0625 6.480469 -47.914062 C 6.132812 -47.765625 5.882812 -47.464844 5.734375 -47.015625 C 4.984375 -44.375 4.238281 -41.632812 3.488281 -38.890625 C 1.59375 -31.859375 0.300781 -26.875 -0.449219 -23.980469 C -1.195312 -21.089844 -1.496094 -19.394531 -1.445312 -18.847656 C -1.394531 -18.398438 -1.148438 -18.199219 -0.699219 -18.148438 C -0.25 -18.097656 0.148438 -18.246094 0.546875 -18.597656 C 0.898438 -18.945312 1.296875 -19.246094 1.695312 -19.59375 C 3.042969 -20.839844 4.335938 -21.988281 5.585938 -22.984375 C 6.832031 -23.933594 7.878906 -24.429688 8.773438 -24.429688 C 9.222656 -24.429688 9.523438 -24.28125 9.671875 -23.980469 C 9.820312 -23.632812 9.871094 -23.035156 9.820312 -22.136719 C 9.820312 -21.589844 9.871094 -20.988281 9.972656 -20.390625 C 10.070312 -19.742188 10.320312 -19.246094 10.769531 -18.796875 C 11.21875 -18.347656 11.914062 -18.148438 12.964844 -18.148438 C 14.757812 -18.148438 16.601562 -18.695312 18.449219 -19.742188 C 20.292969 -20.789062 22.085938 -21.988281 23.882812 -23.332031 C 24.28125 -23.632812 24.480469 -23.980469 24.480469 -24.332031 C 24.429688 -24.679688 24.28125 -24.929688 24.03125 -25.078125 C 23.730469 -25.226562 23.382812 -25.128906 22.933594 -24.828125 Z M 22.933594 -24.828125 "/></g></g></g><g fill="#000000" fill-opacity="1"><g transform="translate(197.409294, 216.839839)"><g/></g></g><g fill="#000000" fill-opacity="1"><g transform="translate(206.837913, 216.839839)"><g/></g></g><g fill="#000000" fill-opacity="1"><g transform="translate(216.264761, 216.839839)"><g><path d="M 4.171875 -7.894531 L 2.617188 -7.894531 L 2.824219 -8.710938 C 2.84375 -8.773438 2.882812 -8.875 2.902344 -9.019531 L 3.046875 -9.59375 L 3.171875 -10 L 3.394531 -10.777344 C 3.394531 -10.757812 3.394531 -10.738281 3.414062 -10.738281 C 3.414062 -10.71875 3.414062 -10.71875 3.4375 -10.695312 C 3.457031 -10.675781 3.476562 -10.59375 3.496094 -10.492188 C 3.519531 -10.371094 3.539062 -10.289062 3.539062 -10.246094 C 3.558594 -10.246094 3.601562 -10.105469 3.660156 -9.835938 C 3.679688 -9.796875 3.722656 -9.734375 3.742188 -9.632812 C 3.761719 -9.53125 3.785156 -9.449219 3.785156 -9.386719 C 3.84375 -9.222656 3.90625 -9 3.96875 -8.734375 C 3.988281 -8.652344 4.007812 -8.550781 4.050781 -8.40625 C 4.089844 -8.261719 4.109375 -8.160156 4.132812 -8.140625 C 4.152344 -8.097656 4.152344 -8.015625 4.171875 -7.894531 Z M 1.984375 -4.539062 C 2.003906 -4.5625 2.003906 -4.582031 2.023438 -4.601562 C 2.023438 -4.621094 2.023438 -4.644531 2.023438 -4.683594 C 2.023438 -4.703125 2.046875 -4.746094 2.066406 -4.804688 C 2.085938 -4.847656 2.105469 -4.949219 2.128906 -5.132812 C 2.148438 -5.234375 2.1875 -5.542969 2.230469 -6.035156 L 2.25 -6.257812 L 4.5625 -6.257812 L 5.09375 -4.5625 C 5.132812 -4.5 5.152344 -4.417969 5.175781 -4.316406 C 5.316406 -3.949219 5.582031 -3.761719 5.972656 -3.742188 C 6.21875 -3.742188 6.421875 -3.824219 6.566406 -3.988281 C 6.707031 -4.152344 6.789062 -4.335938 6.789062 -4.519531 C 6.789062 -4.621094 6.75 -4.785156 6.6875 -4.992188 L 6.542969 -5.398438 C 6.484375 -5.625 6.421875 -5.808594 6.382812 -5.953125 C 6.339844 -6.074219 6.300781 -6.175781 6.277344 -6.238281 C 6.257812 -6.300781 6.238281 -6.339844 6.238281 -6.382812 C 6.21875 -6.421875 6.195312 -6.464844 6.175781 -6.523438 C 6.320312 -6.667969 6.402344 -6.851562 6.402344 -7.035156 C 6.402344 -7.117188 6.382812 -7.199219 6.359375 -7.28125 C 6.300781 -7.609375 6.136719 -7.8125 5.847656 -7.875 C 5.847656 -7.957031 5.828125 -8.015625 5.808594 -8.078125 C 5.808594 -8.160156 5.808594 -8.242188 5.789062 -8.324219 C 5.769531 -8.40625 5.746094 -8.46875 5.726562 -8.527344 C 5.707031 -8.570312 5.664062 -8.710938 5.605469 -8.9375 C 5.460938 -9.550781 5.359375 -9.917969 5.339844 -10.042969 C 5.296875 -10.164062 5.257812 -10.328125 5.195312 -10.511719 C 5.132812 -10.695312 5.09375 -10.820312 5.070312 -10.921875 C 5.050781 -11.023438 5.03125 -11.085938 5.011719 -11.148438 C 4.992188 -11.207031 4.96875 -11.269531 4.949219 -11.371094 C 4.929688 -11.472656 4.886719 -11.515625 4.867188 -11.535156 C 4.847656 -11.636719 4.804688 -11.84375 4.722656 -12.148438 C 4.703125 -12.210938 4.703125 -12.273438 4.703125 -12.292969 C 4.703125 -12.3125 4.703125 -12.351562 4.703125 -12.394531 C 4.683594 -12.414062 4.683594 -12.457031 4.683594 -12.496094 C 4.664062 -12.539062 4.664062 -12.558594 4.664062 -12.578125 C 4.644531 -12.597656 4.644531 -12.597656 4.644531 -12.621094 C 4.621094 -12.761719 4.601562 -12.863281 4.5625 -12.945312 C 4.5625 -13.046875 4.539062 -13.152344 4.519531 -13.210938 C 4.519531 -13.316406 4.5 -13.417969 4.480469 -13.476562 C 4.4375 -13.703125 4.375 -13.886719 4.296875 -14.050781 C 4.132812 -14.359375 3.886719 -14.519531 3.578125 -14.519531 C 3.558594 -14.542969 3.519531 -14.542969 3.476562 -14.542969 C 3.210938 -14.542969 3.007812 -14.441406 2.824219 -14.214844 L 2.78125 -14.132812 C 2.71875 -14.050781 2.660156 -13.96875 2.636719 -13.90625 C 2.617188 -13.824219 2.597656 -13.765625 2.578125 -13.703125 C 2.554688 -13.640625 2.535156 -13.582031 2.515625 -13.519531 C 2.496094 -13.457031 2.453125 -13.417969 2.433594 -13.355469 C 2.414062 -13.292969 2.332031 -13.046875 2.230469 -12.640625 C 2.207031 -12.515625 2.167969 -12.375 2.128906 -12.230469 C 2.066406 -12.085938 1.984375 -11.78125 1.859375 -11.351562 L 1.71875 -10.902344 C 1.71875 -10.859375 1.699219 -10.800781 1.675781 -10.695312 C 1.65625 -10.59375 1.636719 -10.511719 1.617188 -10.453125 C 1.59375 -10.390625 1.574219 -10.308594 1.554688 -10.246094 C 1.535156 -10.164062 1.492188 -10.082031 1.472656 -10 L 1.1875 -8.917969 L 1.144531 -8.671875 C 1.0625 -8.425781 1.023438 -8.285156 1.023438 -8.242188 C 1.003906 -8.140625 0.980469 -8.015625 0.941406 -7.894531 C 0.675781 -7.894531 0.492188 -7.792969 0.347656 -7.566406 C 0.246094 -7.402344 0.203125 -7.238281 0.203125 -7.054688 C 0.203125 -6.730469 0.347656 -6.484375 0.613281 -6.339844 C 0.613281 -6.175781 0.613281 -6.074219 0.59375 -6.054688 C 0.574219 -6.035156 0.574219 -5.992188 0.574219 -5.953125 C 0.574219 -5.910156 0.574219 -5.871094 0.574219 -5.808594 C 0.550781 -5.746094 0.550781 -5.6875 0.550781 -5.644531 C 0.53125 -5.582031 0.53125 -5.542969 0.53125 -5.5 C 0.511719 -5.460938 0.511719 -5.417969 0.511719 -5.378906 C 0.511719 -5.339844 0.492188 -5.296875 0.46875 -5.234375 L 0.410156 -4.910156 C 0.386719 -4.910156 0.386719 -4.886719 0.386719 -4.847656 L 0.367188 -4.582031 C 0.367188 -4.417969 0.410156 -4.273438 0.511719 -4.132812 C 0.714844 -3.90625 0.941406 -3.804688 1.207031 -3.804688 C 1.351562 -3.804688 1.472656 -3.84375 1.617188 -3.925781 C 1.820312 -4.070312 1.941406 -4.253906 1.984375 -4.519531 Z M 1.984375 -4.539062 "/></g></g></g><g fill="#000000" fill-opacity="1"><g transform="translate(228.576708, 216.839839)"><g><path d="M 4.785156 -11.269531 L 4.746094 -11.308594 C 4.746094 -11.332031 4.703125 -11.414062 4.621094 -11.515625 C 4.519531 -11.617188 4.398438 -11.699219 4.253906 -11.761719 L 4.171875 -11.800781 C 4.007812 -11.902344 3.867188 -11.984375 3.761719 -12.003906 C 3.722656 -12.027344 3.660156 -12.046875 3.578125 -12.046875 L 3.519531 -12.066406 C 3.457031 -12.066406 3.375 -12.046875 3.292969 -12.003906 C 3.230469 -12.003906 3.128906 -11.945312 2.964844 -11.820312 C 2.945312 -11.800781 2.925781 -11.78125 2.902344 -11.761719 C 2.882812 -11.738281 2.84375 -11.699219 2.824219 -11.679688 C 2.800781 -11.636719 2.761719 -11.597656 2.742188 -11.574219 C 2.71875 -11.535156 2.679688 -11.496094 2.636719 -11.433594 C 2.578125 -11.371094 2.515625 -11.226562 2.433594 -11.042969 C 2.414062 -10.984375 2.371094 -10.921875 2.351562 -10.859375 C 2.3125 -10.777344 2.269531 -10.65625 2.230469 -10.511719 C 2.1875 -10.429688 2.148438 -10.308594 2.105469 -10.144531 L 2.046875 -9.898438 C 1.984375 -9.632812 1.941406 -9.449219 1.941406 -9.386719 C 1.921875 -9.328125 1.921875 -9.246094 1.902344 -9.140625 C 1.859375 -8.835938 1.839844 -8.570312 1.839844 -8.34375 C 1.839844 -8.160156 1.839844 -8.015625 1.859375 -7.9375 L 1.921875 -7.261719 C 1.964844 -7.097656 1.984375 -6.972656 2.003906 -6.871094 C 2.003906 -6.769531 2.023438 -6.6875 2.046875 -6.625 C 2.066406 -6.566406 2.066406 -6.503906 2.085938 -6.441406 C 2.105469 -6.382812 2.128906 -6.300781 2.148438 -6.195312 L 2.230469 -5.992188 C 2.289062 -5.890625 2.332031 -5.828125 2.351562 -5.769531 C 2.371094 -5.707031 2.394531 -5.644531 2.414062 -5.605469 C 2.433594 -5.542969 2.476562 -5.480469 2.535156 -5.398438 C 2.597656 -5.316406 2.71875 -5.175781 2.925781 -4.96875 C 2.945312 -4.949219 2.984375 -4.949219 3.027344 -4.929688 C 3.046875 -4.910156 3.089844 -4.886719 3.148438 -4.867188 C 3.191406 -4.847656 3.230469 -4.847656 3.292969 -4.828125 C 3.332031 -4.804688 3.375 -4.804688 3.414062 -4.804688 C 3.4375 -4.785156 3.457031 -4.785156 3.476562 -4.785156 L 3.539062 -4.785156 C 3.703125 -4.828125 3.824219 -4.867188 3.925781 -4.929688 C 4.191406 -5.070312 4.375 -5.214844 4.5 -5.359375 L 4.644531 -5.480469 C 4.746094 -5.5625 4.828125 -5.664062 4.886719 -5.769531 C 5.070312 -6.074219 5.316406 -6.21875 5.625 -6.21875 C 5.6875 -6.21875 5.769531 -6.195312 5.828125 -6.15625 C 6.21875 -5.992188 6.402344 -5.746094 6.402344 -5.398438 C 6.402344 -5.214844 6.339844 -5.03125 6.238281 -4.847656 L 6.195312 -4.765625 C 6.035156 -4.539062 5.828125 -4.316406 5.582031 -4.109375 L 5.316406 -3.886719 C 5.113281 -3.742188 4.96875 -3.640625 4.886719 -3.601562 C 4.804688 -3.539062 4.722656 -3.496094 4.644531 -3.457031 C 4.253906 -3.230469 3.84375 -3.128906 3.4375 -3.128906 C 3.273438 -3.148438 3.109375 -3.191406 2.925781 -3.210938 C 2.742188 -3.230469 2.554688 -3.292969 2.394531 -3.355469 L 2.207031 -3.476562 C 1.699219 -3.824219 1.289062 -4.253906 1.023438 -4.765625 C 0.960938 -4.847656 0.921875 -4.949219 0.878906 -5.050781 C 0.816406 -5.152344 0.777344 -5.257812 0.734375 -5.359375 L 0.675781 -5.480469 C 0.550781 -5.828125 0.46875 -6.09375 0.449219 -6.277344 L 0.386719 -6.523438 C 0.347656 -6.730469 0.285156 -7.160156 0.226562 -7.8125 C 0.203125 -7.9375 0.203125 -8.121094 0.203125 -8.34375 L 0.203125 -8.671875 C 0.226562 -8.816406 0.246094 -8.980469 0.246094 -9.121094 C 0.265625 -9.367188 0.285156 -9.53125 0.308594 -9.632812 C 0.328125 -9.714844 0.328125 -9.796875 0.347656 -9.898438 C 0.367188 -9.980469 0.386719 -10.0625 0.410156 -10.144531 L 0.675781 -11.066406 L 0.898438 -11.636719 C 0.960938 -11.738281 1.023438 -11.84375 1.042969 -11.945312 C 1.125 -12.109375 1.207031 -12.230469 1.269531 -12.332031 C 1.328125 -12.414062 1.371094 -12.476562 1.410156 -12.539062 C 1.554688 -12.761719 1.738281 -12.945312 1.941406 -13.109375 C 2.269531 -13.355469 2.554688 -13.519531 2.800781 -13.601562 C 3.046875 -13.683594 3.292969 -13.722656 3.558594 -13.722656 C 3.660156 -13.722656 3.761719 -13.703125 3.84375 -13.683594 C 4.027344 -13.664062 4.191406 -13.621094 4.316406 -13.558594 C 4.457031 -13.519531 4.582031 -13.476562 4.683594 -13.417969 L 4.746094 -13.394531 C 4.96875 -13.292969 5.132812 -13.191406 5.234375 -13.089844 C 5.460938 -12.945312 5.625 -12.824219 5.6875 -12.722656 C 5.769531 -12.679688 5.847656 -12.621094 5.910156 -12.515625 C 5.972656 -12.476562 5.992188 -12.457031 6.011719 -12.433594 C 6.011719 -12.414062 6.011719 -12.394531 6.011719 -12.375 C 6.15625 -12.230469 6.238281 -12.046875 6.238281 -11.84375 L 6.238281 -11.71875 C 6.238281 -11.453125 6.074219 -11.226562 5.746094 -11.042969 C 5.644531 -10.984375 5.542969 -10.960938 5.441406 -10.960938 C 5.195312 -10.960938 4.96875 -11.066406 4.785156 -11.269531 Z M 4.785156 -11.269531 "/></g></g></g><g fill="#000000" fill-opacity="1"><g transform="translate(240.520578, 216.839839)"><g><path d="M 5.542969 -3.230469 C 5.769531 -3.230469 5.972656 -3.332031 6.175781 -3.519531 C 6.300781 -3.640625 6.359375 -3.785156 6.359375 -3.96875 L 6.359375 -4.070312 C 6.359375 -4.296875 6.277344 -4.5 6.117188 -4.703125 C 6.074219 -4.746094 6.035156 -4.785156 6.011719 -4.847656 C 5.953125 -4.949219 5.890625 -5.050781 5.828125 -5.113281 C 5.828125 -5.152344 5.746094 -5.277344 5.605469 -5.480469 L 5.582031 -5.523438 C 5.582031 -5.542969 5.542969 -5.605469 5.480469 -5.664062 L 5.277344 -5.929688 C 5.214844 -6.035156 5.175781 -6.117188 5.152344 -6.15625 C 5.132812 -6.195312 5.113281 -6.238281 5.09375 -6.257812 C 5.070312 -6.277344 5.03125 -6.320312 5.011719 -6.382812 C 4.96875 -6.441406 4.929688 -6.484375 4.886719 -6.523438 C 4.664062 -6.890625 4.480469 -7.136719 4.355469 -7.238281 L 4.109375 -7.566406 L 3.867188 -7.855469 C 3.867188 -7.875 3.84375 -7.914062 3.824219 -7.9375 C 3.804688 -7.957031 3.785156 -7.957031 3.761719 -7.976562 C 3.722656 -8.058594 3.679688 -8.121094 3.660156 -8.160156 C 3.621094 -8.179688 3.578125 -8.222656 3.558594 -8.285156 C 3.519531 -8.324219 3.476562 -8.363281 3.414062 -8.425781 C 3.3125 -8.589844 3.230469 -8.691406 3.191406 -8.734375 C 3.128906 -8.773438 3.089844 -8.816406 3.066406 -8.855469 C 3.046875 -8.875 3.027344 -8.898438 3.007812 -8.917969 L 3.191406 -9.121094 C 3.292969 -9.222656 3.375 -9.328125 3.4375 -9.386719 C 3.496094 -9.449219 3.539062 -9.53125 3.578125 -9.59375 C 3.621094 -9.652344 3.660156 -9.695312 3.703125 -9.734375 L 3.96875 -10.105469 C 4.089844 -10.246094 4.171875 -10.347656 4.191406 -10.429688 C 4.375 -10.695312 4.519531 -10.921875 4.582031 -11.085938 C 4.601562 -11.148438 4.664062 -11.226562 4.722656 -11.332031 C 4.785156 -11.433594 4.847656 -11.554688 4.910156 -11.699219 C 4.96875 -11.84375 5.011719 -11.945312 5.03125 -12.003906 L 5.152344 -12.292969 C 5.214844 -12.433594 5.257812 -12.515625 5.257812 -12.558594 C 5.277344 -12.578125 5.359375 -12.742188 5.460938 -13.007812 C 5.5625 -13.273438 5.605469 -13.5 5.605469 -13.683594 C 5.605469 -13.886719 5.523438 -14.070312 5.359375 -14.214844 C 5.195312 -14.359375 4.992188 -14.441406 4.746094 -14.441406 C 4.316406 -14.441406 4.050781 -14.195312 3.96875 -13.703125 C 3.96875 -13.683594 3.949219 -13.664062 3.949219 -13.640625 C 3.949219 -13.621094 3.925781 -13.601562 3.925781 -13.582031 C 3.90625 -13.519531 3.886719 -13.476562 3.867188 -13.4375 C 3.84375 -13.375 3.824219 -13.335938 3.804688 -13.292969 C 3.785156 -13.253906 3.761719 -13.210938 3.761719 -13.171875 C 3.742188 -13.128906 3.703125 -13.046875 3.640625 -12.925781 L 3.375 -12.292969 L 3.273438 -12.109375 C 3.230469 -12.003906 3.148438 -11.820312 3.007812 -11.597656 L 2.597656 -10.984375 C 2.535156 -10.878906 2.394531 -10.695312 2.167969 -10.429688 C 2.105469 -10.328125 2.003906 -10.226562 1.859375 -10.082031 L 1.859375 -13.539062 C 1.820312 -13.90625 1.65625 -14.152344 1.371094 -14.253906 C 1.246094 -14.316406 1.125 -14.335938 1.023438 -14.335938 C 0.878906 -14.335938 0.714844 -14.277344 0.574219 -14.171875 C 0.347656 -14.03125 0.226562 -13.785156 0.226562 -13.457031 L 0.226562 -5.890625 L 0.203125 -5.378906 L 0.203125 -4.152344 C 0.203125 -3.785156 0.347656 -3.519531 0.613281 -3.375 C 0.757812 -3.292969 0.898438 -3.25 1.042969 -3.25 C 1.1875 -3.25 1.308594 -3.292969 1.433594 -3.355469 C 1.699219 -3.519531 1.839844 -3.785156 1.839844 -4.152344 L 1.839844 -5.359375 C 1.859375 -5.582031 1.859375 -6.359375 1.859375 -7.730469 C 1.902344 -7.710938 1.921875 -7.691406 1.941406 -7.648438 C 1.984375 -7.628906 2.128906 -7.464844 2.351562 -7.136719 C 2.394531 -7.117188 2.433594 -7.054688 2.476562 -6.972656 C 2.535156 -6.914062 2.578125 -6.871094 2.578125 -6.832031 C 2.71875 -6.6875 2.882812 -6.484375 3.066406 -6.21875 C 3.148438 -6.15625 3.3125 -5.953125 3.539062 -5.605469 C 3.558594 -5.582031 3.722656 -5.339844 4.007812 -4.886719 C 4.027344 -4.886719 4.070312 -4.847656 4.089844 -4.785156 L 4.109375 -4.746094 C 4.296875 -4.5 4.417969 -4.316406 4.457031 -4.214844 L 4.683594 -3.867188 C 4.765625 -3.785156 4.804688 -3.722656 4.828125 -3.660156 C 5.03125 -3.375 5.277344 -3.230469 5.542969 -3.230469 Z M 5.542969 -3.230469 "/></g></g></g><g fill="#000000" fill-opacity="1"><g transform="translate(252.423546, 216.839839)"><g><path d="M 1.1875 -3.375 C 1.328125 -3.375 1.472656 -3.414062 1.617188 -3.476562 L 1.839844 -3.578125 C 1.921875 -3.601562 1.984375 -3.601562 2.046875 -3.621094 C 2.085938 -3.621094 2.128906 -3.621094 2.148438 -3.621094 C 2.167969 -3.621094 2.207031 -3.640625 2.25 -3.660156 C 2.289062 -3.679688 2.332031 -3.679688 2.394531 -3.703125 C 2.433594 -3.703125 2.476562 -3.703125 2.496094 -3.703125 C 2.515625 -3.703125 2.554688 -3.722656 2.617188 -3.742188 C 2.679688 -3.761719 2.71875 -3.761719 2.78125 -3.785156 C 2.824219 -3.785156 2.863281 -3.785156 2.882812 -3.785156 C 2.945312 -3.804688 3.148438 -3.84375 3.496094 -3.90625 L 3.539062 -3.90625 C 3.679688 -3.949219 3.867188 -3.96875 4.050781 -3.96875 C 4.089844 -3.988281 4.132812 -3.988281 4.171875 -4.007812 C 4.214844 -4.007812 4.316406 -4.007812 4.480469 -4.027344 L 4.703125 -4.050781 C 4.828125 -4.089844 4.992188 -4.109375 5.214844 -4.109375 C 5.582031 -4.152344 5.828125 -4.316406 5.929688 -4.601562 C 5.992188 -4.722656 6.011719 -4.847656 6.011719 -4.949219 C 6.011719 -5.113281 5.953125 -5.277344 5.847656 -5.417969 C 5.707031 -5.644531 5.480469 -5.746094 5.175781 -5.746094 L 4.949219 -5.726562 C 4.722656 -5.726562 4.539062 -5.707031 4.355469 -5.664062 L 3.640625 -5.582031 C 3.210938 -5.523438 2.925781 -5.460938 2.824219 -5.441406 C 2.742188 -5.441406 2.636719 -5.417969 2.535156 -5.378906 L 2.351562 -5.359375 C 2.289062 -5.359375 2.1875 -5.339844 2.066406 -5.277344 C 2.023438 -5.277344 1.984375 -5.277344 1.964844 -5.257812 L 2.023438 -5.871094 C 2.046875 -6.011719 2.066406 -6.257812 2.066406 -6.585938 L 2.066406 -7.976562 L 2.167969 -7.996094 C 2.394531 -8.058594 2.535156 -8.078125 2.578125 -8.078125 C 2.617188 -8.078125 2.660156 -8.078125 2.679688 -8.097656 C 2.699219 -8.097656 2.742188 -8.097656 2.761719 -8.121094 C 2.78125 -8.121094 2.824219 -8.121094 2.84375 -8.121094 C 2.945312 -8.160156 3.046875 -8.179688 3.148438 -8.179688 C 3.171875 -8.179688 3.210938 -8.179688 3.273438 -8.203125 C 3.3125 -8.203125 3.375 -8.203125 3.4375 -8.203125 C 3.496094 -8.203125 3.539062 -8.203125 3.601562 -8.222656 C 3.660156 -8.222656 3.785156 -8.222656 3.96875 -8.222656 C 4.355469 -8.242188 4.601562 -8.386719 4.722656 -8.652344 C 4.785156 -8.792969 4.828125 -8.917969 4.828125 -9.058594 C 4.828125 -9.203125 4.785156 -9.328125 4.703125 -9.46875 C 4.5625 -9.734375 4.316406 -9.859375 3.988281 -9.859375 C 3.722656 -9.859375 3.578125 -9.859375 3.519531 -9.859375 C 3.457031 -9.835938 3.394531 -9.835938 3.355469 -9.835938 C 3.191406 -9.835938 3.066406 -9.816406 2.964844 -9.796875 C 2.761719 -9.796875 2.617188 -9.777344 2.515625 -9.734375 C 2.496094 -9.714844 2.476562 -9.714844 2.453125 -9.714844 C 2.414062 -9.695312 2.371094 -9.695312 2.351562 -9.695312 C 2.332031 -9.675781 2.3125 -9.675781 2.3125 -9.675781 C 2.289062 -9.675781 2.207031 -9.652344 2.066406 -9.632812 C 2.066406 -11.25 2.066406 -12.109375 2.066406 -12.191406 C 2.046875 -12.25 2.046875 -12.332031 2.046875 -12.394531 C 2.128906 -12.394531 2.230469 -12.414062 2.332031 -12.457031 L 2.578125 -12.515625 C 2.660156 -12.558594 2.742188 -12.578125 2.84375 -12.578125 C 3.027344 -12.640625 3.375 -12.660156 3.886719 -12.660156 C 3.988281 -12.660156 4.050781 -12.660156 4.070312 -12.660156 C 4.089844 -12.640625 4.296875 -12.640625 4.664062 -12.640625 C 5.03125 -12.660156 5.277344 -12.804688 5.417969 -13.070312 C 5.5 -13.210938 5.542969 -13.335938 5.542969 -13.476562 C 5.542969 -13.621094 5.5 -13.742188 5.417969 -13.886719 C 5.277344 -14.152344 5.050781 -14.277344 4.722656 -14.277344 L 4.027344 -14.277344 C 3.925781 -14.296875 3.824219 -14.296875 3.722656 -14.296875 L 3.171875 -14.277344 C 3.109375 -14.277344 2.902344 -14.253906 2.554688 -14.195312 C 2.414062 -14.171875 2.289062 -14.152344 2.1875 -14.113281 L 2.148438 -14.089844 C 2.066406 -14.070312 1.984375 -14.070312 1.921875 -14.050781 C 1.859375 -14.03125 1.800781 -14.011719 1.78125 -13.988281 C 1.617188 -14.132812 1.410156 -14.214844 1.1875 -14.214844 L 1.105469 -14.214844 C 0.941406 -14.214844 0.777344 -14.132812 0.632812 -13.988281 C 0.46875 -13.824219 0.386719 -13.621094 0.386719 -13.394531 C 0.386719 -13.355469 0.386719 -13.171875 0.410156 -12.84375 C 0.410156 -12.515625 0.410156 -12.3125 0.429688 -12.25 C 0.429688 -12.191406 0.429688 -11.1875 0.429688 -9.285156 C 0.429688 -7.300781 0.410156 -6.175781 0.386719 -5.953125 C 0.386719 -5.828125 0.367188 -5.746094 0.347656 -5.6875 C 0.347656 -5.5625 0.308594 -5.175781 0.226562 -4.519531 L 0.226562 -4.355469 C 0.226562 -4.089844 0.328125 -3.867188 0.511719 -3.703125 C 0.695312 -3.476562 0.921875 -3.375 1.1875 -3.375 Z M 1.1875 -3.375 "/></g></g></g><g fill="#000000" fill-opacity="1"><g transform="translate(263.937978, 216.839839)"><g><path d="M 3.273438 -8.957031 L 2.761719 -8.957031 C 2.699219 -8.980469 2.617188 -9 2.535156 -9 C 2.496094 -9.019531 2.453125 -9.039062 2.414062 -9.039062 C 2.3125 -9.101562 2.1875 -9.121094 2.085938 -9.121094 L 1.964844 -9.121094 L 1.964844 -9.46875 C 1.984375 -9.675781 1.984375 -9.960938 1.984375 -10.328125 C 1.984375 -10.71875 1.984375 -10.941406 1.984375 -11.003906 C 1.964844 -11.066406 1.964844 -11.167969 1.964844 -11.332031 C 1.964844 -11.472656 1.964844 -11.617188 1.941406 -11.71875 L 2.167969 -11.945312 C 2.1875 -11.945312 2.207031 -11.964844 2.25 -11.984375 C 2.269531 -12.003906 2.3125 -12.027344 2.351562 -12.027344 C 2.433594 -12.066406 2.597656 -12.085938 2.824219 -12.085938 C 2.902344 -12.085938 2.984375 -12.066406 3.046875 -12.027344 C 3.109375 -12.027344 3.148438 -12.027344 3.191406 -12.003906 C 3.210938 -11.984375 3.230469 -11.964844 3.25 -11.945312 C 3.332031 -11.902344 3.394531 -11.863281 3.4375 -11.820312 C 3.558594 -11.761719 3.722656 -11.597656 3.949219 -11.289062 C 3.988281 -11.226562 4.027344 -11.167969 4.070312 -11.085938 C 4.109375 -11.003906 4.152344 -10.902344 4.214844 -10.777344 C 4.253906 -10.65625 4.273438 -10.53125 4.296875 -10.390625 L 4.296875 -10.144531 C 4.296875 -9.980469 4.296875 -9.878906 4.296875 -9.816406 C 4.273438 -9.753906 4.253906 -9.632812 4.191406 -9.488281 C 4.171875 -9.40625 4.132812 -9.347656 4.109375 -9.328125 C 4.070312 -9.285156 4.027344 -9.265625 4.007812 -9.246094 C 3.988281 -9.222656 3.96875 -9.203125 3.949219 -9.183594 C 3.925781 -9.164062 3.886719 -9.164062 3.84375 -9.140625 C 3.804688 -9.121094 3.761719 -9.101562 3.703125 -9.082031 C 3.640625 -9.058594 3.578125 -9.039062 3.519531 -9.019531 C 3.457031 -9 3.375 -8.980469 3.273438 -8.957031 Z M 5.5625 -2.515625 C 5.808594 -2.515625 6.011719 -2.597656 6.15625 -2.761719 C 6.300781 -2.925781 6.359375 -3.109375 6.359375 -3.292969 C 6.359375 -3.394531 6.339844 -3.519531 6.300781 -3.640625 C 6.277344 -3.761719 6.257812 -3.84375 6.238281 -3.886719 C 6.21875 -3.90625 6.195312 -3.949219 6.175781 -3.988281 C 6.15625 -4.007812 6.136719 -4.050781 6.117188 -4.109375 C 6.074219 -4.234375 6.054688 -4.296875 6.035156 -4.316406 C 5.972656 -4.480469 5.910156 -4.644531 5.828125 -4.785156 C 5.707031 -5.113281 5.542969 -5.417969 5.339844 -5.707031 C 5.234375 -5.953125 5.050781 -6.21875 4.785156 -6.523438 C 4.683594 -6.6875 4.582031 -6.832031 4.457031 -6.933594 C 4.316406 -7.117188 4.152344 -7.28125 3.96875 -7.425781 L 4.050781 -7.445312 C 4.234375 -7.507812 4.417969 -7.585938 4.644531 -7.691406 L 4.722656 -7.730469 C 5.011719 -7.914062 5.234375 -8.097656 5.378906 -8.285156 C 5.625 -8.609375 5.769531 -8.898438 5.789062 -9.121094 C 5.890625 -9.367188 5.929688 -9.652344 5.929688 -9.960938 L 5.929688 -10.410156 C 5.929688 -10.574219 5.910156 -10.738281 5.871094 -10.902344 C 5.828125 -11.066406 5.789062 -11.226562 5.726562 -11.390625 C 5.664062 -11.554688 5.605469 -11.679688 5.542969 -11.78125 C 5.460938 -11.964844 5.378906 -12.109375 5.296875 -12.210938 C 5.195312 -12.375 5.09375 -12.496094 5.011719 -12.578125 C 4.785156 -12.886719 4.5625 -13.089844 4.335938 -13.191406 C 4.214844 -13.292969 4.089844 -13.375 3.949219 -13.417969 C 3.539062 -13.621094 3.089844 -13.722656 2.578125 -13.722656 C 2.3125 -13.722656 2.023438 -13.664062 1.71875 -13.539062 C 1.699219 -13.539062 1.675781 -13.539062 1.65625 -13.519531 C 1.636719 -13.5 1.636719 -13.5 1.617188 -13.5 C 1.472656 -13.664062 1.269531 -13.742188 1.023438 -13.742188 C 0.777344 -13.742188 0.574219 -13.640625 0.386719 -13.457031 C 0.265625 -13.316406 0.203125 -13.128906 0.203125 -12.925781 L 0.226562 -12.699219 L 0.246094 -12.679688 C 0.246094 -12.660156 0.246094 -12.660156 0.265625 -12.640625 C 0.265625 -12.621094 0.265625 -12.597656 0.265625 -12.578125 C 0.265625 -12.539062 0.265625 -12.496094 0.285156 -12.476562 C 0.285156 -12.457031 0.285156 -12.414062 0.285156 -12.375 C 0.285156 -12.332031 0.285156 -12.292969 0.308594 -12.25 C 0.308594 -12.210938 0.308594 -12.109375 0.308594 -11.964844 C 0.308594 -11.820312 0.308594 -11.71875 0.328125 -11.679688 C 0.328125 -11.617188 0.328125 -11.515625 0.328125 -11.332031 C 0.328125 -11.148438 0.328125 -11.042969 0.347656 -10.984375 C 0.347656 -10.921875 0.347656 -10.695312 0.347656 -10.328125 C 0.347656 -9.960938 0.347656 -9.675781 0.328125 -9.46875 C 0.328125 -8.058594 0.328125 -7.21875 0.308594 -6.996094 C 0.285156 -6.890625 0.285156 -6.8125 0.285156 -6.75 C 0.285156 -6.667969 0.285156 -6.585938 0.285156 -6.503906 C 0.265625 -6.421875 0.265625 -6.339844 0.265625 -6.257812 C 0.265625 -6.15625 0.265625 -6.074219 0.265625 -5.992188 C 0.246094 -5.910156 0.246094 -5.808594 0.246094 -5.707031 C 0.246094 -5.605469 0.246094 -5.441406 0.226562 -5.234375 L 0.226562 -3.722656 C 0.246094 -3.679688 0.246094 -3.621094 0.246094 -3.558594 C 0.265625 -3.210938 0.429688 -2.964844 0.695312 -2.824219 C 0.839844 -2.761719 0.960938 -2.742188 1.082031 -2.742188 C 1.226562 -2.742188 1.371094 -2.78125 1.511719 -2.863281 C 1.757812 -3.007812 1.882812 -3.230469 1.882812 -3.539062 C 1.882812 -3.722656 1.882812 -3.804688 1.859375 -3.824219 L 1.859375 -5.195312 L 1.921875 -6.769531 C 2.003906 -6.75 2.105469 -6.707031 2.230469 -6.648438 L 2.289062 -6.625 C 2.476562 -6.542969 2.636719 -6.441406 2.742188 -6.339844 C 2.824219 -6.300781 2.902344 -6.21875 2.984375 -6.117188 C 3.066406 -6.074219 3.148438 -5.992188 3.230469 -5.847656 C 3.3125 -5.769531 3.394531 -5.664062 3.496094 -5.542969 C 3.601562 -5.417969 3.679688 -5.296875 3.742188 -5.195312 C 3.804688 -5.09375 3.886719 -4.96875 3.949219 -4.847656 C 4.089844 -4.621094 4.234375 -4.375 4.335938 -4.109375 C 4.398438 -4.027344 4.457031 -3.867188 4.5625 -3.601562 L 4.601562 -3.496094 C 4.664062 -3.414062 4.683594 -3.332031 4.683594 -3.273438 C 4.722656 -3.25 4.746094 -3.191406 4.765625 -3.109375 C 4.910156 -2.71875 5.175781 -2.535156 5.5625 -2.515625 Z M 5.5625 -2.515625 "/></g></g></g></svg>